<svg xmlns="http://www.w3.org/2000/svg" viewBox="0 0 575 96.1"><defs><style>.cls-1{fill:#e64240;}.cls-2{fill:#fff;}.cls-3{font-size:90.15px;font-family:MLingWaiMedium-TC-B5pc-H, LingWai TC;}</style></defs><title>Asset 10</title><g id="Layer_2" data-name="Layer 2"><g id="Layer_1-2" data-name="Layer 1"><circle class="cls-1" cx="38.37" cy="42" r="38.37"/><path class="cls-2" d="M28.36,27.46H50q5.06.41,3,4.65-2.84,4.65-11.34,9.5,7.09,2.83,20.46,5.46A1.09,1.09,0,0,1,63,48.28c0,.68-.27,1-.81,1a112.13,112.13,0,0,1-23.3-6.47,145.41,145.41,0,0,1-23.7,6.27c-.81.27-1.28,0-1.42-.81s.2-1.14,1-1.42a127.58,127.58,0,0,0,21.88-5.26q-7.7-4.85-10.53-9.1A48.81,48.81,0,0,1,21.07,40q-1,1.21-1.82.61t.2-1.82a36.7,36.7,0,0,0,6.89-11.93c.13-.67.61-.94,1.42-.81A1.16,1.16,0,0,1,28.36,27.46Zm9.93-5.66h19q6.48.81,2.63,10.72a1.2,1.2,0,0,1-1.62.61q-.81-.4-.41-1.42,3.24-7.68-1.42-7.89H19.45Q17,23.82,17,26.45V31.1q-.2,1.21-1.22,1.21c-.68,0-1-.4-1-1.21V25q0-3,4.66-3.24H36.06q-.61-1.62-1-2.43-.61-.81.2-1.21a1.7,1.7,0,0,1,1.62.61A12.8,12.8,0,0,1,38.29,21.8ZM23.7,49.9H53.28q3.85,0,3.85,3.84v8.69q-.2,3.23-3.65,3.44H23.09q-3.45-.2-3.44-4.25V53.54Q19.24,49.7,23.7,49.9Zm-2,4.65v6.27q-.41,3.23,2.43,3H51.86q3.24,0,3-3V54.75q0-2.83-2-2.83H24.71Q21.07,51.73,21.67,54.55ZM49.22,29.48H27.55l-.41.81Q31,36,39.3,40.6a33.62,33.62,0,0,0,11.34-8.69q.81-1.21.61-1.82Q50.84,29.48,49.22,29.48Z"/><text class="cls-3" transform="translate(96.31 76.99)">沟通客户好助手</text></g></g></svg>